    <svg viewBox="0 0 500 500" xmlns="http://www.w3.org/2000/svg">
        <polygon id="shape-60" data-number="60"
            points="245,379 247,380 248,381 250,381 252,381 253,380 255,379 255,401 256,422 257,444 258,461 258,477 259,493 253,493 247,493 241,493 242,477 242,461 243,444 244,422 245,401 245,379"
            fill="none" stroke="red" />

        <polygon id="shape-1" data-number="1"
            points="266,374 265,374 261,376 257,377 255,379 255,401 256,422 257,444 263,444 269,444 275,444 272,420 269,397 266,374"
            fill="none" stroke="blue" />

        <polygon id="shape-2" data-number="2"
            points="280,381 280,381 276,381 272,382 268,384 267,384 269,398 271,412 272,426 278,426 284,425 290,424 286,410 283,395 280,381"
            fill="none" stroke="green" />

        <polygon id="shape-3" data-number="3"
            points="290,379 291,378 295,378 299,377 302,376 303,375 308,388 313,401 319,414 313,416 308,418 303,421 298,407 294,393 290,379"
            fill="none" stroke="purple" />

        <polygon id="shape-4" data-number="4"
            points="299,366 303,365 306,364 310,363 320,382 331,402 341,422 336,425 331,427 326,430 317,409 308,388 299,366"
            fill="none" stroke="orange" />

        <polygon id="shape-5" data-number="5"
            points="310,363 311,362 313,361 316,360 318,359 330,378 342,396 353,415 362,429 371,442 379,456 374,459 369,462 364,465 356,451 349,436 341,422 331,402 320,382 310,363"
            fill="none" stroke="black" />

        <polygon id="shape-6" data-number="6"
            points="329,354 328,354 325,356 321,358 318,359 330,378 342,396 353,415 358,412 363,409 368,405 355,388 342,371 329,354"
            fill="none" stroke="cyan" />

        <polygon id="shape-7" data-number="7"
            points="347,354 343,357 339,359 335,362 342,372 350,382 358,392 362,388 367,385 372,381 363,372 355,363 347,354"
            fill="none" stroke="brown" />

        <polygon id="shape-8" data-number="8"
            points="355,347 357,346 360,343 363,339 365,337 374,344 383,351 392,358 388,362 385,367 381,372 372,363 364,355 355,347"
            fill="none" stroke="magenta" />

        <polygon id="shape-9" data-number="9"
            points="357,331 358,330 360,328 363,324 364,322 364,322 381,332 398,343 415,353 412,358 409,363 405,368 389,356 373,344 357,331"
            fill="none" stroke="yellow" />
        <polygon id="shape-10" data-number="10"
            points="364,322 366,320 367,317 369,314 369,313 387,323 404,332 422,341 436,349 451,356 465,364 462,369 459,374 456,379 442,371 429,362 415,353 398,343 381,332 364,322"
            fill="none" stroke="black" />
        <polygon id="shape-11" data-number="11"
            points="374,302 374,302 373,305 372,308 370,312 369,313 387,323 404,332 422,341 425,336 427,331 430,326 411,318 393,310 374,302"
            fill="none" stroke="cyan" />
        <polygon id="shape-12" data-number="12"
            points="387,292 386,297 385,301 383,306 383,306 393,310 404,315 414,319 416,313 418,308 421,303 410,299 398,296 387,292"
            fill="none" stroke="brown" />
        <polygon id="shape-13" data-number="13"
            points="389,282 390,280 390,276 391,271 391,268 391,268 403,269 415,271 426,272 426,278 425,284 424,290 413,287 401,284 389,282"
            fill="none" stroke="magenta" />
        <polygon id="shape-14" data-number="14"
            points="381,267 381,265 381,262 381,258 381,255 381,255 402,255 423,256 444,257 444,263 444,269 444,275 423,272 402,269 381,267"
            fill="none" stroke="yellow" />
        <polygon id="shape-15" data-number="15"
            points="381,255 381,253 381,252 381,250 381,248 381,247 381,245 402,245 423,244 444,243 461,242 477,242 493,241 493,247 493,253 493,259 477,258 461,258 444,257 423,256 402,255 381,255"
            fill="none" stroke="black" />
        <polygon id="shape-16" data-number="16"
            points="381,233 381,235 381,238 381,242 381,245 381,245 402,245 423,244 444,243 444,237 444,231 444,225 423,228 402,231 381,233"
            fill="none" stroke="cyan" />
        <polygon id="shape-17" data-number="17"
            points="389,218 390,220 390,224 391,229 391,232 391,232 403,231 415,229 426,228 426,222 425,216 424,210 413,213 401,216 389,218"
            fill="none" stroke="brown" />
        <polygon id="shape-18" data-number="18"
            points="387,208 386,203 385,199 383,194 383,194 393,190 404,185 414,181 416,187 418,192 421,197 410,201 398,204 387,208"
            fill="none" stroke="magenta" />
        <polygon id="shape-19" data-number="19"
            points="374,198 374,198 373,195 372,192 370,188 369,187 387,177 404,168 422,159 425,164 427,169 430,174 411,182 393,190 374,198"
            fill="none" stroke="yellow" />
        <polygon id="shape-20" data-number="20"
            points="369,187 369,186 367,183 366,180 364,178 381,168 398,157 415,147 429,138 442,129 456,121 459,126 462,131 465,136 451,144 436,151 422,159 404,168 387,177 369,187"
            fill="none" stroke="black" />
        <polygon id="shape-21" data-number="21"
            points="357,169 358,169 360,172 363,176 364,178 364,178 381,168 398,157 415,147 412,142 409,137 405,132 389,144 373,156 357,169"
            fill="none" stroke="cyan" />
        <polygon id="shape-22" data-number="22"
            points="355,153 357,154 360,157 363,161 365,163 374,156 383,149 392,142 388,138 385,133 381,129 372,137 364,145 355,153"
            fill="none" stroke="brown" />
        <polygon id="shape-23" data-number="23"
            points="347,146 343,143 339,141 335,138 342,128 350,118 358,108 362,112 367,115 372,119 363,128 355,137 347,146"
            fill="none" stroke="magenta" />
        <polygon id="shape-24" data-number="24"
            points="329,146 328,146 325,144 321,142 318,141 330,122 342,104 353,85 358,88 363,91 368,95 355,112 342,129 329,146"
            fill="none" stroke="yellow" />
        <polygon id="shape-25" data-number="25"
            points="318,141 316,140 313,139 311,138 310,137 320,118 331,98 341,78 349,64 356,49 364,35 369,38 374,41 379,44 371,58 362,71 353,85 342,104 330,122 318,141"
            fill="none" stroke="black" />
        <polygon id="shape-26" data-number="26"
            points="299,134 303,135 306,136 310,137 320,118 331,98 341,78 336,75 331,73 326,70 317,91 308,112 299,134"
            fill="none" stroke="cyan" />
        <polygon id="shape-27" data-number="27"
            points="290,121 291,122 295,122 299,123 302,124 303,125 308,112 313,99 319,86 313,84 308,82 303,79 298,93 294,107 290,121"
            fill="none" stroke="brown" />
        <polygon id="shape-28" data-number="28"
            points="280,119 280,119 276,119 272,118 268,116 267,116 269,102 271,88 272,74 278,74 284,75 290,76 286,90 283,105 280,119"
            fill="none" stroke="magenta" />
        <polygon id="shape-29" data-number="29"
            points="266,126 265,126 261,124 257,123 255,121 255,99 256,78 257,56 263,56 269,56 275,56 272,80 269,103 266,126"
            fill="none" stroke="yellow" />
        <polygon id="shape-30" data-number="30"
            points="255,121 253,120 252,119 250,119 248,119 247,120 245,121 245,99 244,78 243,56 242,39 242,23 241,7 247,7 253,7 259,7 258,23 258,39 257,56 256,78 255,99 255,121"
            fill="none" stroke="black" />
        <polygon id="shape-31" data-number="31"
            points="234,126 235,126 239,124 243,123 245,121 245,99 244,78 243,56 237,56 231,56 225,56 228,80 231,103 234,126"
            fill="none" stroke="cyan" />
        <polygon id="shape-32" data-number="32"
            points="220,119 220,119 224,119 228,118 232,116 233,116 231,102 229,88 228,74 222,74 216,75 210,76 214,90 217,105 220,119"
            fill="none" stroke="brown" />
        <polygon id="shape-33" data-number="33"
            points="210,121 209,122 205,122 201,123 198,124 197,125 192,112 187,99 181,86 187,84 192,82 197,79 202,93 206,107 210,121"
            fill="none" stroke="magenta" />
        <polygon id="shape-34" data-number="34"
            points="201,134 197,135 194,136 190,137 180,118 169,98 159,78 164,75 169,73 174,70 183,91 192,112 201,134"
            fill="none" stroke="yellow" />
        <polygon id="shape-35" data-number="35"
            points="190,137 189,138 187,139 184,140 182,141 170,122 158,104 147,85 138,71 129,58 121,44 126,41 131,38 136,35 144,49 151,64 159,78 169,98 180,118 190,137"
            fill="none" stroke="black" />
        <polygon id="shape-36" data-number="36"
            points="171,146 172,146 175,144 179,142 182,141 170,122 158,104 147,85 142,88 137,91 132,95 145,112 158,129 171,146"
            fill="none" stroke="cyan" />
        <polygon id="shape-37" data-number="37"
            points="153,146 157,143 161,141 165,138 158,128 150,118 142,108 138,112 133,115 128,119 137,128 145,137 153,146"
            fill="none" stroke="brown" />
        <polygon id="shape-38" data-number="38"
            points="145,153 143,154 140,157 137,161 135,163 126,156 117,149 108,142 112,138 115,133 119,129 128,137 136,145 145,153"
            fill="none" stroke="magenta" />
        <polygon id="shape-39" data-number="39"
            points="143,169 142,169 140,172 137,176 136,178 136,178 119,168 102,157 85,147 88,142 91,137 95,132 111,144 127,156 143,169"
            fill="none" stroke="yellow" />
        <polygon id="shape-40" data-number="40"
            points="136,178 134,180 133,183 131,186 131,187 113,177 96,168 78,159 64,151 49,144 35,136 38,131 41,126 44,121 58,129 71,138 85,147 102,157 119,168 136,178"
            fill="none" stroke="black" />
        <polygon id="shape-41" data-number="41"
            points="126,198 126,198 127,195 128,192 130,188 131,187 113,177 96,168 78,159 75,164 73,169 70,174 89,182 107,190 126,198"
            fill="none" stroke="cyan" />
        <polygon id="shape-42" data-number="42"
            points="113,208 114,203 115,199 117,194 117,194 107,190 96,185 86,181 84,187 82,192 79,197 90,201 102,204 113,208"
            fill="none" stroke="brown" />
        <polygon id="shape-43" data-number="43"
            points="111,218 110,220 110,224 109,229 109,232 109,232 97,231 85,229 74,228 74,222 75,216 76,210 87,213 99,216 111,218"
            fill="none" stroke="magenta" />
        <polygon id="shape-44" data-number="44"
            points="119,233 119,235 119,238 119,242 119,245 119,245 98,245 77,244 56,243 56,237 56,231 56,225 77,228 98,231 119,233"
            fill="none" stroke="yellow" />
        <polygon id="shape-45" data-number="45"
            points="119,245 119,247 119,248 119,250 119,252 119,253 119,255 98,255 77,256 56,257 39,258 23,258 7,259 7,253 7,247 7,241 23,242 39,242 56,243 77,244 98,245 119,245"
            fill="none" stroke="black" />
        <polygon id="shape-46" data-number="46"
            points="119,267 119,265 119,262 119,258 119,255 119,255 98,255 77,256 56,257 56,263 56,269 56,275 77,272 98,269 119,267"
            fill="none" stroke="cyan" />
        <polygon id="shape-47" data-number="47"
            points="111,282 110,280 110,276 109,271 109,268 109,268 97,269 85,271 74,272 74,278 75,284 76,290 87,287 99,284 111,282"
            fill="none" stroke="brown" />
        <polygon id="shape-48" data-number="48"
            points="113,292 114,297 115,301 117,306 117,306 107,310 96,315 86,319 84,313 82,308 79,303 90,299 102,296 113,292"
            fill="none" stroke="magenta" />
        <polygon id="shape-49" data-number="49"
            points="126,302 126,302 127,305 128,308 130,312 131,313 113,323 96,332 78,341 75,336 73,331 70,326 89,318 107,310 126,302"
            fill="none" stroke="yellow" />
        <polygon id="shape-50" data-number="50"
            points="131,313 131,314 133,317 134,320 136,322 119,332 102,343 85,353 71,362 58,371 44,379 41,374 38,369 35,364 49,356 64,349 78,341 96,332 113,323 131,313"
            fill="none" stroke="black" />
        <polygon id="shape-51" data-number="51"
            points="143,331 142,331 140,328 137,324 136,322 136,322 119,332 102,343 85,353 88,358 91,363 95,368 111,356 127,344 143,331"
            fill="none" stroke="cyan" />
        <polygon id="shape-52" data-number="52"
            points="145,347 143,346 140,343 137,339 135,337 126,344 117,351 108,358 112,362 115,367 119,372 128,363 136,355 145,347"
            fill="none" stroke="brown" />
        <polygon id="shape-53" data-number="53"
            points="153,354 157,357 161,359 165,362 158,372 150,382 142,392 138,388 133,385 128,381 137,372 145,363 153,354"
            fill="none" stroke="magenta" />
        <polygon id="shape-54" data-number="54"
            points="171,354 172,354 175,356 179,358 182,359 170,378 158,396 147,415 142,412 137,409 132,405 145,388 158,371 171,354"
            fill="none" stroke="yellow" />
        <polygon id="shape-55" data-number="55"
            points="182,359 184,360 187,361 189,362 190,363 180,382 169,402 159,422 151,436 144,451 136,465 131,462 126,459 121,456 129,442 138,429 147,415 158,396 170,378 182,359"
            fill="none" stroke="black" />
        <polygon id="shape-56" data-number="56"
            points="201,366 197,365 194,364 190,363 180,382 169,402 159,422 164,425 169,427 174,430 183,409 192,388 201,366"
            fill="none" stroke="cyan" />
        <polygon id="shape-57" data-number="57"
            points="210,379 209,378 205,378 201,377 198,376 197,375 192,388 187,401 181,414 187,416 192,418 197,421 202,407 206,393 210,379"
            fill="none" stroke="brown" />
        <polygon id="shape-58" data-number="58"
            points="220,381 220,381 224,381 228,382 232,384 233,384 231,398 229,412 228,426 222,426 216,425 210,424 214,410 217,395 220,381"
            fill="none" stroke="magenta" />
        <polygon id="shape-59" data-number="59"
            points="234,374 235,374 239,376 243,377 245,379 245,401 244,422 243,444 237,444 231,444 225,444 228,420 231,397 234,374"
            fill="none" stroke="yellow" />
        <polygon id="sc-1" data-number="5"
            points="290, 379 289, 379 286, 379 283, 380 280, 381 280, 381 276, 381 272, 382 268, 384 267, 384 267, 382 266, 380 266, 378 267, 378 271, 377 275, 376 278, 375 279, 375 282, 375 285, 374 288, 373 288, 373 290, 373 293, 372 298, 371 300, 370 301, 370 301, 372 302, 374 303, 375 302, 376 299, 377 295, 378 291, 378 290, 379"
            fill="none" stroke="red" />

        <polygon id="sc-2" data-number="10"
            points="355, 347 353, 349 350, 351 347, 354 347, 354 343, 357 339, 359 335, 362 334, 360 333, 359 331, 357 332, 357 335, 355 339, 353 343, 350 344, 349 346, 347 349, 345 351, 344 351, 344 352, 342 356, 339 359, 336 360, 334 360, 334 362, 335 363, 336 365, 337 363, 339 360, 343 357, 346 355, 347"
            fill="none" stroke="blue" />

        <polygon id="sc-3" data-number="15"
            points="389, 282 389, 283 388, 287 388, 290 387, 292 386, 297 385, 301 383, 306 383, 306 381, 305 380, 304 378, 304 378, 304 379, 300 380, 296 382, 292 382, 291 382, 289 383, 285 384, 282 384, 281 384, 279 385, 275 385, 270 385, 267 385, 267 387, 267 389, 268 391, 268 391, 268 391, 271 390, 276 390, 280 389, 282"
            fill="none" stroke="green" />
        <polygon id="sc-4" data-number="20"
            points="387, 208 388, 210 388, 213 389, 217 389, 218 390, 220 390, 224 391, 229 391, 232 391, 232 389, 232 387, 233 385, 233 385, 233 385, 230 385, 225 384, 221 384, 220 384, 218 383, 215 382, 211 382, 209 382, 208 380, 204 379, 200 378, 196 378, 196 380, 196 381, 195 383, 194 383, 194 385, 199 386, 203 387, 208"
            fill="none" stroke="red" />

        <polygon id="sc-5" data-number="25"
            points="347, 146 347, 146 350, 149 353, 151 355, 153 357, 154 360, 157 363, 161 365, 163 363, 164 362, 165 360, 166 359, 164 356, 161 352, 158 351, 156 351, 156 349, 155 346, 153 344, 151 343, 150 342, 149 338, 147 334, 144 332, 143 331, 143 333, 141 334, 140 335, 138 339, 141 343, 143 347, 146"
            fill="none" stroke="blue" />

        <polygon id="sc-6" data-number="30"
            points="280, 119 283, 120 286, 121 289, 121 290, 121 291, 122 295, 122 299, 123 302, 124 303, 124 302, 126 301, 128 301, 130 300, 130 298, 129 293, 128 290, 127 288, 127 288, 127 285, 126 282, 125 279, 125 278, 125 275, 124 271, 123 267, 122 266, 122 266, 120 267, 118 267, 116 268, 116 272, 118 276, 119 280, 119"
            fill="none" stroke="green" />
        <polygon id="sc-7" data-number="35"
            points="210, 121 211, 121 214, 121 217, 120 220, 119 220, 119 224, 119 228, 118 232, 116 233, 116 233, 118 234, 120 234, 122 233, 122 229, 123 225, 124 222, 125 221, 125 218, 125 215, 126 212, 127 212, 127 210, 127 207, 128 202, 129 200, 130 199, 130 199, 128 198, 126 197, 125 198, 124 201, 123 205, 122 209, 122 210, 121"
            fill="none" stroke="red" />

        <polygon id="sc-8" data-number="40"
            points="145, 153 147, 151 150, 149 153, 146 153, 146 157, 143 161, 141 165, 138 166, 140 167, 141 169, 143 168, 143 165, 145 161, 147 157, 150 156, 151 154, 153 151, 155 149, 156 149, 156 148, 158 145, 161 141, 164 140, 166 140, 166 138, 165 137, 164 135, 163 137, 161 140, 157 143, 154 145, 153"
            fill="none" stroke="blue" />

        <polygon id="sc-9" data-number="45"
            points="111, 218 111, 217 112, 213 112, 210 113, 208 114, 203 115, 199 117, 194 117, 194 119, 195 120, 196 122, 196 122, 196 121, 200 120, 204 118, 208 118, 209 118, 211 117, 215 116, 218 116, 219 116, 221 115, 225 115, 230 115, 233 115, 233 113, 233 111, 232 109, 232 109, 232 109, 229 110, 224 110, 220 111, 218"
            fill="none" stroke="green" />
        <polygon id="sc-10" data-number="50"
            points="113, 292 112, 290 112, 287 111, 283 111, 282 110, 280 110, 276 109, 271 109, 268 109, 268 111, 268 113, 267 115, 267 115, 267 115, 270 115, 275 116, 279 116, 280 116, 282 117, 285 118, 289 118, 291 118, 292 120, 296 121, 300 122, 304 122, 304 120, 304 119, 305 117, 306 117, 306 115, 301 114, 297 113, 292"
            fill="none" stroke="red" />

        <polygon id="sc-11" data-number="55"
            points="153, 354 153, 354 150, 351 147, 349 145, 347 143, 346 140, 343 137, 339 135, 337 137, 336 138, 335 140, 334 141, 336 144, 339 148, 342 149, 344 149, 344 151, 345 154, 347 156, 349 157, 350 158, 351 162, 353 166, 356 168, 357 169, 357 167, 359 166, 360 165, 362 161, 360 157, 357 153, 354"
            fill="none" stroke="blue" />

        <polygon id="sc-12" data-number="60"
            points="220, 381 217, 380 214, 379 211, 379 210, 379 209, 378 205, 378 201, 377 198, 376 197, 375 198, 374 199, 372 199, 370 200, 370 202, 371 207, 372 210, 373 212, 373 212, 373 215, 374 218, 375 221, 375 222, 375 225, 376 229, 377 233, 378 234, 378 234, 380 233, 382 233, 384 232, 384 228, 382 224, 381 220, 381"
            fill="none" stroke="green" />
    </svg>